<svg xmlns="http://www.w3.org/2000/svg" viewBox="0 0 24 17" width="24px" height="17px">
<path d="M23.44,15.73A1.5,1.5,0,0,1,23,14.67V12.33a1.5,1.5,0,0,1,.44-1.06l.41-.42a.45.45,0,0,0,.15-.33v-.06a.48.48,0,0,0-.07-.21L18.44.26A.51.51,0,0,0,18,0H7A2,2,0,0,0,5.23,1.08l0,.06L.25,11A2,2,0,0,0,0,12v3a2,2,0,0,0,2,2H23.5a.49.49,0,0,0,.46-.31.47.47,0,0,0-.11-.54ZM2.5,13H22v1H2.5a.5.5,0,0,0,0,1H22.05a2.37,2.37,0,0,0,.33,1H2a1,1,0,0,1-1-1V12a1,1,0,0,1,.08-.39h0l.06-.11A1,1,0,0,1,2,11H22.38a2.32,2.32,0,0,0-.33,1H2.5a.5.5,0,0,0,0,1ZM2,10H1.88L6.06,1.64a.21.21,0,0,0,0-.06A1,1,0,0,1,7,1H17.7l4.95,9Z"/></svg>