<svg xmlns="http://www.w3.org/2000/svg" viewBox="0 0 86 86" width="86px" height="86px">
<path d="M.82,0A1,1,0,0,0,0,1.11l2,18A1,1,0,0,0,3.1,20a1,1,0,0,0,.62-.31L8,15.39,19.32,25.73a.77.77,0,0,0,.28.19,28.89,28.89,0,0,0,0,34.19,1,1,0,0,0-.28.16L8,70.61,3.72,66.3A1,1,0,0,0,2,66.9l-2,18A1,1,0,0,0,.9,86a.89.89,0,0,0,.23,0l18-2A1,1,0,0,0,20,82.87a1.06,1.06,0,0,0-.28-.57l-4.25-4.25L26.69,67.74a1,1,0,0,0,.31-.56,28.94,28.94,0,0,0,32,0,1,1,0,0,0,.31.53L70.53,78.05,66.28,82.3a1,1,0,0,0,0,1.42,1,1,0,0,0,.57.27l18,2A1,1,0,0,0,86,85.13a.88.88,0,0,0,0-.23l-2-18a1,1,0,0,0-1.1-.9,1,1,0,0,0-.62.3L78,70.61,66.68,60.27a.85.85,0,0,0-.28-.16,28.89,28.89,0,0,0,0-34.19.77.77,0,0,0,.28-.19L78,15.39l4.32,4.31a1,1,0,0,0,1.41,0,1,1,0,0,0,.31-.62l2-18A1,1,0,0,0,85.1,0h-.23l-18,2A1,1,0,0,0,66,3.13a1,1,0,0,0,.27.57L70.53,8,59.31,18.26a1,1,0,0,0-.31.6,28.89,28.89,0,0,0-32,0,1,1,0,0,0-.31-.57L15.47,8,19.72,3.7a1,1,0,0,0,0-1.41A1.06,1.06,0,0,0,19.13,2l-18-2Zm1.31,2.1L16.82,3.76,13.29,7.29a1,1,0,0,0,0,1.42l0,0,12,11a.65.65,0,0,0,.21.16,29.32,29.32,0,0,0-4.75,4.5.34.34,0,0,0-.09-.12l-12-11a1,1,0,0,0-1.4,0l-3.5,3.5L2.13,2.11Zm81.74,0L82.21,16.8l-3.5-3.5a1,1,0,0,0-1.4,0l-12,11a.54.54,0,0,0-.09.12,29.14,29.14,0,0,0-4.72-4.5,1,1,0,0,0,.19-.16l12-11a1,1,0,0,0,.06-1.41l0,0L69.18,3.76,83.87,2.11ZM43,16A27,27,0,0,1,61.9,62.27C61.17,54,55.39,46.06,47.62,43.74a9,9,0,1,0-9.24,0C30.61,46.06,24.83,54,24.1,62.27A27,27,0,0,1,43,16Zm0,13a7,7,0,1,1-7,7A7,7,0,0,1,43,29Zm0,16c.33,0,.67,0,1,0a.83.83,0,0,0,0,.22l3,11a1,1,0,0,0,.13.28L43,61.49l-4.16-4.94a1,1,0,0,0,.13-.28l3-11a.83.83,0,0,0,0-.22C42.33,45,42.67,45,43,45Zm-3.16.37-2.53,9.35-4.56-5.38,0,0a16.43,16.43,0,0,1,7.12-3.94Zm6.32,0a16.31,16.31,0,0,1,7.12,3.91l0,.06-4.56,5.38-2.53-9.35ZM31.31,50.71,42.25,63.65a1,1,0,0,0,1.41.08l.09-.08L54.69,50.71A20.33,20.33,0,0,1,60,64a27.08,27.08,0,0,1-34,0A20.33,20.33,0,0,1,31.31,50.71ZM20.78,61.64a29.62,29.62,0,0,0,4.72,4.51.71.71,0,0,0-.18.12l-12,11a1,1,0,0,0-.06,1.42l0,0,3.53,3.53L2.13,83.9,3.79,69.21l3.5,3.5a1,1,0,0,0,1.4,0l12-11a.43.43,0,0,0,.09-.1Zm44.44,0,.09.1,12,11a1,1,0,0,0,1.4,0l3.5-3.5L83.87,83.9,69.18,82.24l3.54-3.53a1,1,0,0,0,0-1.41l0,0-12-11a1.19,1.19,0,0,0-.22-.12,30.21,30.21,0,0,0,4.75-4.5Z"/></svg>