<svg xmlns="http://www.w3.org/2000/svg" viewBox="0 0 19 20" width="19px" height="20px">
<path d="M4.94,13l.36-.23V1.4A.9.9,0,0,1,6.2.5H17.8a.9.9,0,0,1,.9.9V18.24a.9.9,0,0,1-.9.9H6.2a.9.9,0,0,1-.9-.9V17.8l-.5-.15v.59a1.4,1.4,0,0,0,1.4,1.4H17.8a1.4,1.4,0,0,0,1.4-1.4V1.4A1.4,1.4,0,0,0,17.8,0H6.2A1.4,1.4,0,0,0,4.8,1.4V12.88Z"/>
<polygon points="8.42 4.16 7.3 3.38 7.02 3.79 8.54 4.85 10.24 2.43 9.83 2.14 8.42 4.16"/>
<rect x="11.35" y="3.14" width="5.36" height="0.5"/>
<rect x="11.35" y="7.43" width="5.36" height="0.5"/>
<rect x="11.35" y="11.71" width="5.36" height="0.5"/>
<rect x="11.35" y="16" width="5.36" height="0.5"/>
<path d="M8.49,11a1,1,0,1,0,1,1A1,1,0,0,0,8.49,11Zm0,1.47A.49.49,0,0,1,8,12a.47.47,0,0,1,.48-.48A.48.48,0,0,1,9,12,.49.49,0,0,1,8.49,12.45Z"/>
<path d="M8.49,6.69a1,1,0,1,0,1,1A1,1,0,0,0,8.49,6.69Zm0,1.47a.49.49,0,0,1,0-1A.49.49,0,0,1,9,7.68.48.48,0,0,1,8.49,8.16Z"/>
<path d="M8.49,15.26a1,1,0,1,0,1,1A1,1,0,0,0,8.49,15.26Zm0,1.47a.49.49,0,0,1,0-1,.49.49,0,1,1,0,1Z"/>
<path d="M3.14,11.62a.1.1,0,0,0-.07.07l-.21,1a2.34,2.34,0,0,0-.46.19l-.86-.56a.11.11,0,0,0-.11,0l-.72.72a.11.11,0,0,0,0,.11l.56.86a2.62,2.62,0,0,0-.19.46l-1,.22a.08.08,0,0,0-.07.08v1a.08.08,0,0,0,.07.08l1,.21a2.43,2.43,0,0,0,.19.47l-.56.85a.11.11,0,0,0,0,.11l.72.72a.09.09,0,0,0,.11,0l.86-.55a2.34,2.34,0,0,0,.46.19l.21,1a.09.09,0,0,0,.09.06h1a.08.08,0,0,0,.08-.06l.21-1a2.34,2.34,0,0,0,.46-.19l.86.55a.09.09,0,0,0,.11,0l.72-.72a.09.09,0,0,0,0-.11l-.55-.85a2.43,2.43,0,0,0,.19-.47l1-.21a.08.08,0,0,0,.06-.08v-1s0-.08-.06-.08l-1-.22A2.62,2.62,0,0,0,6.08,14l.55-.86a.09.09,0,0,0,0-.11l-.72-.72a.11.11,0,0,0-.11,0l-.86.56a2.34,2.34,0,0,0-.46-.19l-.21-1a.08.08,0,0,0-.08-.07h-1Zm.09.17h.88l.21,1a.09.09,0,0,0,.06.06,2.39,2.39,0,0,1,.52.22A.1.1,0,0,0,5,13l.83-.53.63.62L5.91,14a.06.06,0,0,0,0,.08,2.25,2.25,0,0,1,.21.53.08.08,0,0,0,.07.05l1,.22v.88l-1,.21a.11.11,0,0,0-.07.06,2.36,2.36,0,0,1-.21.52.08.08,0,0,0,0,.09l.54.84-.63.62L5,17.53a.07.07,0,0,0-.09,0,2.36,2.36,0,0,1-.52.21.11.11,0,0,0-.06.07l-.21,1H3.23l-.22-1a.09.09,0,0,0,0-.07,2.25,2.25,0,0,1-.53-.21.07.07,0,0,0-.09,0l-.83.54-.63-.62.54-.84a.1.1,0,0,0,0-.09A2.39,2.39,0,0,1,1.21,16a.09.09,0,0,0-.06-.06l-1-.21v-.88l1-.22a.06.06,0,0,0,.06-.05,2.27,2.27,0,0,1,.22-.53.08.08,0,0,0,0-.08l-.54-.84.63-.62.83.53a.1.1,0,0,0,.09,0A2.27,2.27,0,0,1,3,12.83s0,0,0-.06Zm.44,1.88a1.62,1.62,0,1,0,1.62,1.62A1.61,1.61,0,0,0,3.67,13.67Zm0,.17a1.45,1.45,0,1,1-1.45,1.45A1.45,1.45,0,0,1,3.67,13.84Z"/>
<path d="M3.14,11.62a.1.1,0,0,0-.07.07l-.21,1a2.34,2.34,0,0,0-.46.19l-.86-.56a.11.11,0,0,0-.11,0l-.72.72a.11.11,0,0,0,0,.11l.56.86a2.62,2.62,0,0,0-.19.46l-1,.22a.08.08,0,0,0-.07.08v1a.08.08,0,0,0,.07.08l1,.21a2.43,2.43,0,0,0,.19.47l-.56.85a.11.11,0,0,0,0,.11l.72.72a.09.09,0,0,0,.11,0l.86-.55a2.34,2.34,0,0,0,.46.19l.21,1a.09.09,0,0,0,.09.06h1a.08.08,0,0,0,.08-.06l.21-1a2.34,2.34,0,0,0,.46-.19l.86.55a.09.09,0,0,0,.11,0l.72-.72a.09.09,0,0,0,0-.11l-.55-.85a2.43,2.43,0,0,0,.19-.47l1-.21a.08.08,0,0,0,.06-.08v-1s0-.08-.06-.08l-1-.22A2.62,2.62,0,0,0,6.08,14l.55-.86a.09.09,0,0,0,0-.11l-.72-.72a.11.11,0,0,0-.11,0l-.86.56a2.34,2.34,0,0,0-.46-.19l-.21-1a.08.08,0,0,0-.08-.07h-1Zm.09.17h.88l.21,1a.09.09,0,0,0,.06.06,2.39,2.39,0,0,1,.52.22A.1.1,0,0,0,5,13l.83-.53.63.62L5.91,14a.06.06,0,0,0,0,.08,2.25,2.25,0,0,1,.21.53.08.08,0,0,0,.07.05l1,.22v.88l-1,.21a.11.11,0,0,0-.07.06,2.36,2.36,0,0,1-.21.52.08.08,0,0,0,0,.09l.54.84-.63.62L5,17.53a.07.07,0,0,0-.09,0,2.36,2.36,0,0,1-.52.21.11.11,0,0,0-.06.07l-.21,1H3.23l-.22-1a.09.09,0,0,0,0-.07,2.25,2.25,0,0,1-.53-.21.07.07,0,0,0-.09,0l-.83.54-.63-.62.54-.84a.1.1,0,0,0,0-.09A2.39,2.39,0,0,1,1.21,16a.09.09,0,0,0-.06-.06l-1-.21v-.88l1-.22a.06.06,0,0,0,.06-.05,2.27,2.27,0,0,1,.22-.53.08.08,0,0,0,0-.08l-.54-.84.63-.62.83.53a.1.1,0,0,0,.09,0A2.27,2.27,0,0,1,3,12.83s0,0,0-.06Zm.44,1.88a1.62,1.62,0,1,0,1.62,1.62A1.61,1.61,0,0,0,3.67,13.67Zm0,.17a1.45,1.45,0,1,1-1.45,1.45A1.45,1.45,0,0,1,3.67,13.84Z"/>
<path d="M3.16,11.74a.11.11,0,0,0-.07.06l-.2,1a3,3,0,0,0-.45.18l-.83-.53a.08.08,0,0,0-.1,0l-.7.7a.08.08,0,0,0,0,.1l.53.83a3,3,0,0,0-.18.45l-1,.21s-.06,0-.06.07v1a.09.09,0,0,0,.06.08l1,.21a3.38,3.38,0,0,0,.18.44l-.53.83a.09.09,0,0,0,0,.11l.7.69a.08.08,0,0,0,.1,0l.83-.53a3,3,0,0,0,.45.18l.2,1a.08.08,0,0,0,.08.06h1a.08.08,0,0,0,.08-.06l.21-1a3.38,3.38,0,0,0,.44-.18l.83.53a.09.09,0,0,0,.11,0l.69-.69a.09.09,0,0,0,0-.11L6,16.51a3.38,3.38,0,0,0,.18-.44l1-.21a.08.08,0,0,0,.06-.08v-1a.07.07,0,0,0-.06-.07l-1-.21A3,3,0,0,0,6,14.06l.53-.83a.08.08,0,0,0,0-.1l-.69-.7a.09.09,0,0,0-.11,0L4.89,13a3.38,3.38,0,0,0-.44-.18l-.21-1a.09.09,0,0,0-.08-.06h-1Zm.08.17h.85l.21.94s0,.05,0,.06a2.28,2.28,0,0,1,.51.21.14.14,0,0,0,.09,0l.8-.52.61.6L5.84,14a.08.08,0,0,0,0,.08A2.28,2.28,0,0,1,6,14.6a.11.11,0,0,0,.07.06l.94.2v.85l-.94.21A.11.11,0,0,0,6,16a2.41,2.41,0,0,1-.21.5.1.1,0,0,0,0,.09l.52.81-.61.6L5,17.46a.08.08,0,0,0-.09,0,2.85,2.85,0,0,1-.51.2.09.09,0,0,0,0,.07l-.21.94H3.24L3,17.73a.08.08,0,0,0,0-.07,2.85,2.85,0,0,1-.51-.2.06.06,0,0,0-.08,0L1.58,18l-.6-.6.52-.81a.14.14,0,0,0,0-.09,2.41,2.41,0,0,1-.21-.5.09.09,0,0,0-.06-.06l-.95-.21v-.85l1-.2a.09.09,0,0,0,.06-.06,2.28,2.28,0,0,1,.21-.51.11.11,0,0,0,0-.08L1,13.2l.6-.6.81.52a.11.11,0,0,0,.08,0A2.28,2.28,0,0,1,3,12.91a.06.06,0,0,0,0-.06Zm.43,1.81a1.57,1.57,0,1,0,1.56,1.57A1.57,1.57,0,0,0,3.67,13.72Zm0,.17a1.4,1.4,0,1,1-1.41,1.4A1.4,1.4,0,0,1,3.67,13.89Z"/></svg>