<svg xmlns="http://www.w3.org/2000/svg" viewBox="0 0 72 68" width="72px" height="68px">
<path d="M67.22,68.22H58.11a3.9,3.9,0,0,1-2.19-.67L52.08,65a2,2,0,0,0-1.94-.12l-4.71,2.36a3.94,3.94,0,0,1-4.36-.56l-4.58-4a1.93,1.93,0,0,0-2.55,0l-5.23,4.58a3.93,3.93,0,0,1-2.6,1H1.22a1,1,0,1,1,0-2H26.11a1.94,1.94,0,0,0,1.28-.48l5.23-4.57a3.94,3.94,0,0,1,5.19,0l4.58,4a1.94,1.94,0,0,0,2.14.28l4.71-2.36a3.94,3.94,0,0,1,3.95.25L57,65.89a2,2,0,0,0,1.08.33h9.11a1,1,0,0,1,0,2Z"/>
<path d="M70.3,5.42l-2.6-3a6,6,0,0,0-8.46-.67L9.05,44.57a.82.82,0,0,0-.22.27L.26,60.14a2,2,0,0,0,.22,2.28A2,2,0,0,0,2.7,63l16.45-6.08a.92.92,0,0,0,.3-.18L69.64,13.88A6,6,0,0,0,70.3,5.42ZM25,49.38l-7.8-9.14L51.41,11l7.8,9.13Zm-6.7,5.73L2,61.12,10.48,46l5.19-4.43,7.8,9.14ZM68.34,12.36l-7.61,6.49-7.8-9.13,7.61-6.5a4,4,0,0,1,5.64.45l2.6,3.05A4,4,0,0,1,68.34,12.36Z"/>
<path d="M34.92,17.89A1,1,0,0,1,35,16.48L54,.24a1,1,0,0,1,1.3,1.52L36.33,18A1,1,0,0,1,34.92,17.89Z"/></svg>