<svg xmlns="http://www.w3.org/2000/svg" viewBox="0 0 91 91" width="91px" height="91px">
<path d="M26.09,19.42h-.4a9.92,9.92,0,0,1-5-1.23,8.75,8.75,0,0,1-1.24-.88,9.87,9.87,0,0,0-1-.72A4.58,4.58,0,0,0,16.61,16l-.44-.08A6.24,6.24,0,0,1,13.66,15c-.17-.11-.4-.23-.63-.35a5.67,5.67,0,0,1-1.59-1.09c-1.25-1.44.1-3,1-4,.22-.25.43-.48.59-.7a23.14,23.14,0,0,0,1.45-2.26c1.11-1.89,2.26-3.84,4.34-4.8a7.34,7.34,0,0,1,4.67-.54,15,15,0,0,1,5.33,2.62,6.3,6.3,0,0,1,1.62,3,8.5,8.5,0,0,0,.69,1.7h0a3.83,3.83,0,0,0,1.32,1.12,3.49,3.49,0,0,1,1.89,2.14c.21,1.14-.63,2.05-1.31,2.79l-.41.45a10.22,10.22,0,0,0-.86,1.28A12.35,12.35,0,0,1,31,17.52C29.91,18.93,27.77,19.42,26.09,19.42ZM22,2.12a6.52,6.52,0,0,0-2.75.62c-1.8.83-2.82,2.56-3.9,4.4a24.67,24.67,0,0,1-1.5,2.35c-.18.24-.41.5-.65.77-1,1.12-1.62,1.91-1,2.63a5.23,5.23,0,0,0,1.31.87c.26.14.51.27.7.39a5.12,5.12,0,0,0,2.16.77l.43.08a5.72,5.72,0,0,1,2.2.73,10.23,10.23,0,0,1,1.07.79,9.89,9.89,0,0,0,1.12.8,8.91,8.91,0,0,0,4.56,1.09c1.59.08,3.59-.35,4.46-1.49.26-.35.48-.71.71-1.09a9.62,9.62,0,0,1,.95-1.4c.13-.16.28-.32.44-.49.58-.63,1.17-1.28,1.05-1.93s-.76-1-1.44-1.48a4.72,4.72,0,0,1-1.65-1.45,9.73,9.73,0,0,1-.77-1.89,5.53,5.53,0,0,0-1.33-2.52,13.92,13.92,0,0,0-4.9-2.41A5.81,5.81,0,0,0,22,2.12Zm2.84,16.14a4.07,4.07,0,0,1-1-.11,8.83,8.83,0,0,1-4.4-2.41A4.66,4.66,0,0,1,18.54,13c0-.3-.06-.62-.12-.93a6.27,6.27,0,0,0-1.23-2.51L17,9.26a2.07,2.07,0,0,1-.42-1.69,3,3,0,0,1,1.7-1.67l.79-.43A12,12,0,0,1,22.4,4a3.6,3.6,0,0,1,2.23.21,2.45,2.45,0,0,1,.67.48,1.4,1.4,0,0,0,.52.37c.3.08.56.13.8.18A3.12,3.12,0,0,1,29,6.67a7.44,7.44,0,0,1,1.46,4.19v.51c0,1.76.09,3.94-1.38,5.14h0A7.1,7.1,0,0,1,24.83,18.26ZM23.26,5A3.09,3.09,0,0,0,22.6,5a11.37,11.37,0,0,0-3.05,1.32c-.29.16-.57.32-.83.45-.72.37-1.09.7-1.18,1a1.17,1.17,0,0,0,.28.89L18,9a7,7,0,0,1,1.39,2.9,9,9,0,0,1,.13,1,3.82,3.82,0,0,0,.69,2.21,8,8,0,0,0,3.87,2.08,5.35,5.35,0,0,0,4.33-1.44c1.09-.89,1-2.81,1-4.34v-.53a6.57,6.57,0,0,0-1.27-3.62,2.17,2.17,0,0,0-1.73-1c-.26,0-.55-.11-.87-.2a2.26,2.26,0,0,1-.94-.59,1.73,1.73,0,0,0-.4-.31A2.32,2.32,0,0,0,23.26,5Z"/>
<path d="M17.38,67.76a2,2,0,0,1-1.76-1,3.62,3.62,0,0,1,.22-3.32,5.89,5.89,0,0,0,.36-1.26A9.24,9.24,0,0,1,16.51,61,3.42,3.42,0,0,1,19,58.79a1.87,1.87,0,0,1,1.82.94c1.06,1.62.59,4.48-.16,5.92h0a4.25,4.25,0,0,1-3.22,2.11Zm1.82-8h-.1a2.47,2.47,0,0,0-1.65,1.54,8.33,8.33,0,0,0-.27,1,7.25,7.25,0,0,1-.43,1.46c-.44,1-.65,1.74-.26,2.41a.9.9,0,0,0,.91.53,3.27,3.27,0,0,0,2.36-1.58h0c.64-1.21,1-3.67.21-4.91A.93.93,0,0,0,19.2,59.77Z"/>
<path d="M63.62,43.72h0a3.25,3.25,0,0,1-2.5-1.4,19,19,0,0,1-2.38-4.66c-1-2.4-1.86-4.66-4-6-.38-.24-.78-.47-1.18-.69a10.09,10.09,0,0,1-3.4-2.62,2.69,2.69,0,0,1-.62-2.57c.33-.87,1.28-1.47,2.82-1.8,1.07-.22,2.15-.42,3.21-.61l1.8-.34a9.42,9.42,0,0,0,3.46-1.67c.36-.24.74-.49,1.13-.73,3-1.85,4.06-5.58,5-8.87l.2-.73c.4-1.53,1.07-4.08,3.53-3.7a2.65,2.65,0,0,1,2.08,2A8.35,8.35,0,0,1,73,14a21.93,21.93,0,0,1-1.69,5.85c-.21.43-.44.85-.66,1.27a20.1,20.1,0,0,0-1.63,3.61A36.12,36.12,0,0,0,67.5,36.18c.09,2.38,0,4.49-1.38,6.23h0A3.26,3.26,0,0,1,63.62,43.72ZM70.13,8.26c-1.22,0-1.67,1.31-2.12,3l-.19.74c-1,3.47-2,7.41-5.42,9.46l-1.1.71A10.1,10.1,0,0,1,57.48,24l-1.81.34c-1.05.19-2.12.39-3.18.61s-1.9.66-2.09,1.18,0,.95.49,1.61A9.1,9.1,0,0,0,54,30.06c.42.24.83.47,1.23.72,2.45,1.55,3.45,4.07,4.43,6.5a18.08,18.08,0,0,0,2.24,4.43,2.28,2.28,0,0,0,1.73,1h0a2.31,2.31,0,0,0,1.73-.95c1.21-1.47,1.24-3.31,1.16-5.56a37.32,37.32,0,0,1,1.58-11.75,21.65,21.65,0,0,1,1.71-3.78c.22-.41.44-.83.65-1.25a21.33,21.33,0,0,0,1.6-5.58,7.5,7.5,0,0,0-.31-4.18c-.36-.88-.6-1.28-1.32-1.39Zm-8,26a5.6,5.6,0,0,1-4.7-3.33h0a6.29,6.29,0,0,1,.27-3.71c.75-2.07,2.65-3.4,4.33-4.56l.69-.5c.94-.68,2.36-1.73,3.44-1.19A1.47,1.47,0,0,1,67,22.2a6.32,6.32,0,0,1-.93,3,8.62,8.62,0,0,0-.39.84A23.64,23.64,0,0,0,65,29.88c0,.16,0,.34,0,.52-.12,1.41-.28,3.33-2.06,3.78A3.27,3.27,0,0,1,62.14,34.26Zm-3.75-3.64c.44,1.36,2.73,2.95,4.2,2.59,1-.26,1.19-1.41,1.32-2.89,0-.19,0-.38.05-.55a23.65,23.65,0,0,1,.76-4.05,8.82,8.82,0,0,1,.44-1A5.92,5.92,0,0,0,66,22.29a.46.46,0,0,0-.28-.42c-.53-.26-1.84.69-2.4,1.1l-.71.51c-1.63,1.13-3.31,2.31-4,4.08a5.09,5.09,0,0,0-.26,3.06Z"/>
<path d="M24.57,15.46a3.31,3.31,0,0,1-2.39-1.21,7.64,7.64,0,0,1-1.83-2.73A3.35,3.35,0,0,1,20.54,9a2.37,2.37,0,0,1,1.39-1.2,2.5,2.5,0,0,1,1.95.35,2.37,2.37,0,0,0,1,.34h.49c.77,0,1.83-.06,1.91,1.71a7.85,7.85,0,0,0,.16,1c0,.22.09.44.12.65A3.12,3.12,0,0,1,26,15.05h0A2.66,2.66,0,0,1,24.57,15.46ZM22.5,8.75a.84.84,0,0,0-.27,0,1.39,1.39,0,0,0-.81.7,2.37,2.37,0,0,0-.12,1.72,6.92,6.92,0,0,0,1.62,2.37,1.94,1.94,0,0,0,2.53.62h0a2.13,2.13,0,0,0,1.08-2.13c0-.2-.07-.4-.11-.6a7.53,7.53,0,0,1-.18-1.2c0-.79-.1-.78-.88-.76h-.55a3.26,3.26,0,0,1-1.38-.45A2.15,2.15,0,0,0,22.5,8.75Z"/>
<path d="M13.43,71.17a2.44,2.44,0,0,1-1.76-.67c-1.29-1.22-1.08-3.61-1-4.31a3.91,3.91,0,0,1,2.18-2.94,3.78,3.78,0,0,0,1.67-1.64,8.16,8.16,0,0,0,.17-3.76c-.05-.63-.11-1.22-.11-1.76v-.28c0-3.34,0-11.18,4.82-11.45a2.6,2.6,0,0,1,2.22.84c1,1.2.79,3.21.63,4a17.4,17.4,0,0,1-.52,1.84,7.82,7.82,0,0,0-.59,3.36,6.39,6.39,0,0,0,.74,2,8.83,8.83,0,0,1,.8,2h0a22.16,22.16,0,0,1,.42,4.72c0,2.92-.92,6.4-3.52,6.65a7.33,7.33,0,0,1-1.25,0,3.52,3.52,0,0,0-1.59.09,4.71,4.71,0,0,0-1,.55,4.59,4.59,0,0,1-1.62.77A4.6,4.6,0,0,1,13.43,71.17Zm6.21-25.81h-.17c-3.85.22-3.87,7.39-3.87,10.45v.28c0,.49.05,1.06.11,1.67A9,9,0,0,1,15.45,62a4.66,4.66,0,0,1-2,2.08,2.93,2.93,0,0,0-1.73,2.23c-.16,1.15-.08,2.75.68,3.46a1.68,1.68,0,0,0,1.59.33,3.37,3.37,0,0,0,1.26-.62,6.28,6.28,0,0,1,1.2-.66,4.45,4.45,0,0,1,2-.14,5.46,5.46,0,0,0,1.06,0c2.08-.19,2.63-3.64,2.62-5.65a21.12,21.12,0,0,0-.4-4.5h0A7.4,7.4,0,0,0,21,56.83a7.31,7.31,0,0,1-.84-2.27,8.65,8.65,0,0,1,.63-3.81A16.86,16.86,0,0,0,21.29,49a4.09,4.09,0,0,0-.41-3.18A1.56,1.56,0,0,0,19.64,45.36Z"/>
<path d="M41,44.9a1.67,1.67,0,0,1-1.23-.49h0a1.74,1.74,0,0,1-.3-.4c-.53-.9,0-1.91.45-2.65a6.53,6.53,0,0,0,.33-.63,4.36,4.36,0,0,0,.11-1.95c-.1-1.18-.21-2.51,1.24-3.2a3.25,3.25,0,0,1,3.06.1,3.31,3.31,0,0,1,1.72,2.54c.26,2.41-1.55,4.89-3.38,6A4,4,0,0,1,41,44.9Zm-.52-1.19c.45.44,1.34,0,2-.35,1.58-1,3.1-3.1,2.9-5a2.37,2.37,0,0,0-3.36-1.85c-.79.38-.77,1-.67,2.21a5.38,5.38,0,0,1-.18,2.41,6.63,6.63,0,0,1-.38.75c-.33.59-.71,1.25-.47,1.66a1,1,0,0,0,.15.2Z"/>
<path d="M36.63,49h-.14a1.2,1.2,0,0,1-1.17-1,8.23,8.23,0,0,1,.88-4.69,9.47,9.47,0,0,0,.89-3.26,7,7,0,0,0-.91-2.83c-.57-1.21-1.17-2.47-.9-3.59h0a2.84,2.84,0,0,1,2.17-2.17c2.51-.66,6.71,1,9.16,3.7,1.77,1.91,2.37,4,1.71,5.93S39.6,49,36.63,49Zm-.38-15.11c-.18.77.34,1.87.83,2.93a7.71,7.71,0,0,1,1,3.28,10.51,10.51,0,0,1-1,3.6,7.18,7.18,0,0,0-.82,4.13c0,.09,0,.15.25.17,2.26.2,10.31-5.79,10.81-7.22.73-2.09-.62-4-1.49-4.92-2.2-2.38-6-4-8.18-3.41a1.86,1.86,0,0,0-1.45,1.44Z"/>
<path d="M21,87.28a16.46,16.46,0,0,1-6.14-1.44A16.53,16.53,0,0,1,9.1,81.75c-.25-.28-.51-.55-.77-.82A12.37,12.37,0,0,1,5,76.16c-.18-.56-.37-1.1-.56-1.64A17.35,17.35,0,0,1,3.3,69.79a16.82,16.82,0,0,1,.3-3.7,16.44,16.44,0,0,0,.3-3.31A10.52,10.52,0,0,1,5,57.71l.41-1c.54-1.29,1.1-2.62,1.51-4,.88-2.88,1.63-5.7,1.08-8.7A19.17,19.17,0,0,0,4.11,36,22.38,22.38,0,0,0,.28,32.22l.22-.47.32-.39.06.06a22.91,22.91,0,0,1,4,3.93A20.17,20.17,0,0,1,9,43.9c.59,3.22-.19,6.18-1.11,9.17-.43,1.39-1,2.74-1.55,4l-.4,1a9.61,9.61,0,0,0-1,4.65,17.77,17.77,0,0,1-.31,3.51,15.89,15.89,0,0,0-.29,3.48,16,16,0,0,0,1.11,4.46c.19.55.39,1.1.56,1.67a11.74,11.74,0,0,0,3.08,4.38l.79.83a15.52,15.52,0,0,0,5.44,3.85c1.57.68,5.54,2.11,8.4.85,2.5-1.1,3.63-4.31,3.85-6.94a29.59,29.59,0,0,0-.82-8.26c-.3-1.53-.6-3.11-.77-4.71a25.83,25.83,0,0,1,.41-7.51,33.43,33.43,0,0,1,1-3.65c.15-.47.35-.91.54-1.35a9.33,9.33,0,0,0,.55-1.43,7.6,7.6,0,0,0,.21-1.22A6.47,6.47,0,0,1,29,49l.19-.51a22.73,22.73,0,0,0,1.87-7,15,15,0,0,0-.5-5.62c-.61-1.77-1.81-2.56-3.34-3.57l-.6-.4a26.26,26.26,0,0,0-2.43-1.38l-.37-.2c-.78-.41-1.51-.87-2.23-1.32-.54-.34-1.08-.68-1.63-1-.31-.18-.63-.33-.94-.49s-.77-.38-1.14-.6A49.12,49.12,0,0,1,11.39,22l-.32-.27c-.68-.57-1.32-1.18-2-1.77-.41-.4-.83-.79-1.26-1.18s-.57-.49-.85-.72a9.2,9.2,0,0,1-2.19-2.25C3.08,13,4.74,10.48,6.21,8.27A21.85,21.85,0,0,0,7.58,6a21.78,21.78,0,0,1,4-5.41c.16-.17.33-.32.5-.47l.64.77a5.11,5.11,0,0,0-.42.39A21.09,21.09,0,0,0,8.48,6.43,22,22,0,0,1,7,8.82C5.62,11,4.27,13,5.68,15.28a8.26,8.26,0,0,0,2,2c.3.25.6.49.89.76.44.39.86.79,1.28,1.19.62.58,1.25,1.18,1.9,1.73l.32.27A47.53,47.53,0,0,0,18.36,26c.34.2.7.38,1.06.56s.67.33,1,.52c.57.32,1.12.67,1.68,1s1.41.89,2.15,1.28l.38.2A26.34,26.34,0,0,1,27.14,31l.59.4c1.55,1,3,2,3.74,4.07a16.09,16.09,0,0,1,.55,6,23.61,23.61,0,0,1-1.93,7.35l-.19.5a5.19,5.19,0,0,0-.3,1.49,9.57,9.57,0,0,1-.23,1.39,12.79,12.79,0,0,1-.61,1.57c-.18.42-.36.82-.5,1.24a32,32,0,0,0-.93,3.54,24.83,24.83,0,0,0-.4,7.21c.17,1.56.47,3.12.76,4.62a31.26,31.26,0,0,1,.84,8.54c-.25,2.92-1.54,6.5-4.45,7.78A7.62,7.62,0,0,1,21,87.28Z"/>
<path d="M22.35,81.8a6.36,6.36,0,0,1-2.93-.8,6,6,0,0,1-2.2-2.46,6.07,6.07,0,0,0-1.55-1.92c-.69-.47-1.36-.27-2.41.09a4.55,4.55,0,0,1-2.94.3c-1.77-.55-2.48-2.47-3.05-4-.08-.21-.15-.42-.23-.62a13.71,13.71,0,0,1-1.33-6.13,16.38,16.38,0,0,1,1.28-6,6.4,6.4,0,0,1,2.73-2.92,12.24,12.24,0,0,0,1.55-1.18,4.57,4.57,0,0,0,1.28-4,14.81,14.81,0,0,1-.35-5.95l.07-.48c.35-2.36.76-5,.21-7.28-.83-3.37-3.13-7.89-5.91-10a14.15,14.15,0,0,0-5-2L.36,26l.28-1,1.19.33A14.73,14.73,0,0,1,7.17,27.6c3,2.26,5.4,7,6.27,10.57.6,2.44.19,5.22-.18,7.67l-.07.48a14,14,0,0,0,.33,5.57,5.57,5.57,0,0,1-1.56,5,12.25,12.25,0,0,1-1.69,1.29,5.35,5.35,0,0,0-2.36,2.49A15.5,15.5,0,0,0,6.7,66.28,12.91,12.91,0,0,0,8,72c.08.2.16.42.24.64.52,1.41,1.11,3,2.4,3.41a3.85,3.85,0,0,0,2.33-.3c1-.35,2.16-.74,3.29,0A6.77,6.77,0,0,1,18.07,78a5.31,5.31,0,0,0,1.82,2.09,4.38,4.38,0,0,0,3.5.49,2.1,2.1,0,0,0,1.2-1.44c.62-2.14.13-4.76-.29-7.07-.09-.5-.18-1-.26-1.44s-.22-1.07-.35-1.6a12.73,12.73,0,0,1-.47-2.69,16.15,16.15,0,0,1,.22-2.88c.07-.43.13-.87.17-1.3.24-2.46.58-4.88,1-7.2.2-1.08.45-2.1.69-3.1a18.77,18.77,0,0,0,.78-7.71c-.06-.37-.11-.7-.15-1a8.52,8.52,0,0,0-.75-2.91c-.21-.43-.39-.85-.58-1.27a16.68,16.68,0,0,0-1.42-2.75A16,16,0,0,0,21.25,34l-.44-.45c-.34-.35-.7-.66-1.09-1s-.7-.59-1-.92c-.19-.18-.34-.35-.49-.51a3.82,3.82,0,0,0-1.35-1.06c-.4-.19-.79-.39-1.18-.6s-1-.53-1.5-.74-1-.4-1.52-.59a13.31,13.31,0,0,1-4.9-2.69,15.86,15.86,0,0,1-3.14-5A15.11,15.11,0,0,1,4,18.76c-.37-1.2-.78-2.56-1.52-3.14-.34-.27-.74-.24-1.37-.18a4.44,4.44,0,0,1-.62.05l0-1a4.9,4.9,0,0,0,.54,0,2.69,2.69,0,0,1,2.1.38c1,.78,1.45,2.3,1.85,3.64a15.71,15.71,0,0,0,.55,1.61,15,15,0,0,0,2.93,4.64A12.14,12.14,0,0,0,13,27.19c.52.2,1,.39,1.55.61a16.67,16.67,0,0,1,1.59.77c.37.2.75.4,1.13.58a4.77,4.77,0,0,1,1.66,1.29l.46.48c.32.31.65.59,1,.87s.78.67,1.15,1.05l.44.45A17,17,0,0,1,24,35.68a18.79,18.79,0,0,1,1.51,2.91c.18.4.36.81.56,1.23A9.57,9.57,0,0,1,26.92,43c0,.31.08.63.14,1a19.51,19.51,0,0,1-.79,8.11c-.24,1-.48,2-.67,3-.42,2.29-.76,4.69-1,7.11,0,.45-.1.9-.17,1.35a15.68,15.68,0,0,0-.22,2.7,12.58,12.58,0,0,0,.45,2.49c.14.54.28,1.11.37,1.68s.16.93.25,1.41c.45,2.43.95,5.18.26,7.54a3.06,3.06,0,0,1-1.77,2.08A3.59,3.59,0,0,1,22.35,81.8Z"/>
<path d="M1.53,3.68a2.21,2.21,0,0,1-.94-.2,1.87,1.87,0,0,1-.41-.26l.64-.77A.59.59,0,0,0,1,2.57c.79.37,2.09-.29,3.14-.83A12.5,12.5,0,0,1,5.29,1.2L6.63.73C7.28.51,7.91.3,8.52,0L8.91,1c-.65.27-1.31.5-2,.72l-1.31.46c-.28.11-.65.29-1,.49A7.4,7.4,0,0,1,1.53,3.68Z"/>
<path d="M47.06,8.23a4.66,4.66,0,0,1-2.24-.5A8.73,8.73,0,0,1,42.1,5.19l-.7-.86-.24-.28a10.27,10.27,0,0,0-2.69-2.47A6.77,6.77,0,0,0,36.82,1L37,0a7.3,7.3,0,0,1,1.9.69,11,11,0,0,1,3,2.7l.23.28c.26.29.5.59.73.89a8.18,8.18,0,0,0,2.41,2.28,5.33,5.33,0,0,0,3,.31c.35,0,.7-.07,1-.08h.74a8.94,8.94,0,0,0,2.55-.3A32.5,32.5,0,0,0,60,3.18l.77-.46A14.24,14.24,0,0,0,64,.16l.74.68a15.26,15.26,0,0,1-3.52,2.74L60.46,4a33.46,33.46,0,0,1-7.52,3.69,9.76,9.76,0,0,1-2.81.34H49.4c-.33,0-.66,0-1,.07S47.51,8.23,47.06,8.23Z"/>
<path d="M48.12,3.22a3.14,3.14,0,0,1-1.81-.55A8.21,8.21,0,0,1,44.45.81l.78-.62a7.51,7.51,0,0,0,1.63,1.65A2.55,2.55,0,0,0,49,2.11a8.62,8.62,0,0,0,.92-.27l.4-.14.74-.22A8.51,8.51,0,0,0,54,.23l.46.27.31.38-.07.06a9.07,9.07,0,0,1-3.36,1.5l-.72.22-.38.12a8.72,8.72,0,0,1-1,.31A5.6,5.6,0,0,1,48.12,3.22Z"/>
<path d="M34.91,90.84l-.72-.68a18.36,18.36,0,0,0,2.15-2.77c.75-1.27,1.91-4.09,1-5.61-.39-.63-.78-1-1.08-.94-.83.06-1.8,2.2-2.38,3.48A15.06,15.06,0,0,1,33,85.94c-.22.31-.48.65-.75,1-.85,1.1-1.82,2.36-1.79,3.54l-1,0c0-1.53,1.09-3,2-4.17.27-.34.51-.66.71-1a11.72,11.72,0,0,0,.73-1.47c.85-1.86,1.8-4,3.24-4.06.71,0,1.38.42,2,1.4,1.2,1.93,0,5.08-.95,6.65A19.05,19.05,0,0,1,34.91,90.84Zm8.7-.11-.89-.46a8.86,8.86,0,0,0,1.23-4,15.58,15.58,0,0,0-.21-3.11,11.16,11.16,0,0,0-2.31-5.45,9.94,9.94,0,0,0-.88-.81,6.82,6.82,0,0,1-1.42-1.51c-.16-.25-.29-.48-.42-.7a8.05,8.05,0,0,0-1.07-1.56c-2.09-2.34-2.93-4.21-2.55-5.73a7.77,7.77,0,0,1,2.38-3.47,13.15,13.15,0,0,0,1.35-1.5c.92-1.24.72-2.07.42-3.31-.1-.39-.2-.81-.27-1.26-.67-4.35,3.73-7.78,5.65-9.06,4.29-2.84,6.72-5.67,7.22-8.41a6.57,6.57,0,0,0-1.33-5.09,8.3,8.3,0,0,0-2.42-2.2,5.27,5.27,0,0,1-1.17-1.19,3.81,3.81,0,0,0-1.12-1.08,1.22,1.22,0,0,0-.64-.11,2.09,2.09,0,0,1-.79-.09,4.14,4.14,0,0,1-1.25-.74,5.88,5.88,0,0,0-.7-.48C42,29.2,41.5,29,41,28.81a7.8,7.8,0,0,1-3-1.73,2.76,2.76,0,0,1-.67-2.69,3,3,0,0,1,2.16-2,9.56,9.56,0,0,1,2.36-.24,5.78,5.78,0,0,0,3.11-.65c.29-.19.57-.39.85-.6a5.45,5.45,0,0,1,3.34-1.44,6.51,6.51,0,0,1,2.24.59,8.34,8.34,0,0,0,1.33.45c2.62.54,5.68-1.38,8.06-3.11.2-.16.43-.31.66-.47,1.43-1,2.91-2,2.6-3.63-.44-2.3-.66-4.24.88-6.39a9.66,9.66,0,0,1,7.9-4.44,6.32,6.32,0,0,1,6.36,4.47,13.4,13.4,0,0,1,0,6.63c-.61,2.38-2.22,4.13-3.77,5.82-.51.56-1,1.14-1.53,1.73a7.46,7.46,0,0,0-1.94,3.69c-.15,1.69-.15,3.45-.15,5.15,0,1.44,0,2.92-.1,4.38,0,.59,0,1.23,0,1.9a13.82,13.82,0,0,1-.22,3.61,5.35,5.35,0,0,1-1.6,2.43,5.39,5.39,0,0,0-1.21,1.56c-.87,2,.61,3.33,2.18,4.78a14.3,14.3,0,0,1,1.68,1.74c.65.89.74,1,1.64,1.16a6.08,6.08,0,0,1,3.44,1.39c1.36,1.31,1.87,3.35,2.22,5.37l.06.38c.14.86.16,1,.87,1.23a5.64,5.64,0,0,0,1.39.11,6.57,6.57,0,0,1,1.46.1c4.37.91,6.52,4.65,7.41,6.79l-.92.38c-.82-2-2.77-5.37-6.69-6.19A5.64,5.64,0,0,0,82.1,61a6.25,6.25,0,0,1-1.66-.14c-1.33-.36-1.46-1.14-1.6-2l-.06-.37c-.32-1.85-.77-3.71-1.92-4.82a5.32,5.32,0,0,0-2.92-1.13,2.85,2.85,0,0,1-2.28-1.55,13.43,13.43,0,0,0-1.55-1.6c-1.59-1.47-3.57-3.29-2.42-5.91a6.48,6.48,0,0,1,1.41-1.86,4.43,4.43,0,0,0,1.35-2,13.34,13.34,0,0,0,.19-3.34c0-.66,0-1.35,0-2,.08-1.43.09-2.9.09-4.32,0-1.73,0-3.5.16-5.24a8.3,8.3,0,0,1,2.16-4.23c.5-.61,1-1.21,1.57-1.78,1.53-1.67,3-3.25,3.53-5.39a12.42,12.42,0,0,0,0-6.09,5.4,5.4,0,0,0-5.35-3.76,8.69,8.69,0,0,0-7.13,4c-1.31,1.83-1.13,3.49-.72,5.62s-1.48,3.57-3,4.64l-.64.45c-2.55,1.86-5.85,3.92-8.85,3.29a9.1,9.1,0,0,1-1.5-.5,5.47,5.47,0,0,0-1.89-.52,4.46,4.46,0,0,0-2.73,1.24c-.29.22-.59.44-.9.64a6.58,6.58,0,0,1-3.62.8,9.3,9.3,0,0,0-2.14.22,2,2,0,0,0-1.45,1.35,1.76,1.76,0,0,0,.44,1.73,7.06,7.06,0,0,0,2.66,1.47,15,15,0,0,1,1.53.66,6.19,6.19,0,0,1,.84.57,3.57,3.57,0,0,0,1,.59,1.52,1.52,0,0,0,.49,0,2.19,2.19,0,0,1,1.1.22,4.76,4.76,0,0,1,1.44,1.34,4.73,4.73,0,0,0,.95,1,9.16,9.16,0,0,1,2.67,2.44,7.54,7.54,0,0,1,1.51,5.86c-.56,3-3.13,6.06-7.66,9.06-1.37.92-5.81,4.19-5.21,8.07.07.42.16.81.25,1.18A4.28,4.28,0,0,1,39.63,63a14.64,14.64,0,0,1-1.45,1.61,6.86,6.86,0,0,0-2.12,3c-.29,1.15.5,2.77,2.33,4.82a8.78,8.78,0,0,1,1.19,1.72c.12.21.25.44.4.68a6.07,6.07,0,0,0,1.22,1.27,10.44,10.44,0,0,1,1,.91A12,12,0,0,1,44.72,83a16.43,16.43,0,0,1,.23,3.3A9.86,9.86,0,0,1,43.61,90.73ZM3.24,90.52l-1,0v-.36a6.34,6.34,0,0,1,1.56-4.68c1.08-1.31.6-2.89-.45-4.86a24.73,24.73,0,0,0-1.48-2.33,22,22,0,0,1-1.83-3L1,74.8a20.37,20.37,0,0,0,1.76,2.88,26.2,26.2,0,0,1,1.53,2.43c.73,1.35,2.07,3.87.34,6-1.23,1.49-1.26,2.3-1.33,4.08Zm86.88-34a21.54,21.54,0,0,0-2.77-2.64,24.51,24.51,0,0,0-3.94-2.81l-.47-.25c-2.72-1.45-4.86-2.6-6-6a26.4,26.4,0,0,1-1-9.31,11.85,11.85,0,0,1,2-5.87,10.17,10.17,0,0,1,1.87-2.54,13.23,13.23,0,0,1,4.55-2.4c.66-.24,1.36-.5,2-.8a3.74,3.74,0,0,0,2.23-2.6,7.09,7.09,0,0,0-1.55-5.61l-.12-.16a30.43,30.43,0,0,1-3.13-4.47,13.8,13.8,0,0,1-1.14-3.7l-.13-.63A7.92,7.92,0,0,0,81,3.69l-.28-.41A7.27,7.27,0,0,1,79.3.59l1-.18A6.36,6.36,0,0,0,81.5,2.7l.29.42a9,9,0,0,1,1.73,3.43l.13.64a13.23,13.23,0,0,0,1,3.44,31.18,31.18,0,0,0,3,4.32l.13.16a8,8,0,0,1,1.73,6.47,4.75,4.75,0,0,1-2.79,3.27c-.69.32-1.4.58-2.09.83a12.32,12.32,0,0,0-4.23,2.21,9.28,9.28,0,0,0-1.65,2.25,10.89,10.89,0,0,0-1.88,5.44,25.1,25.1,0,0,0,.93,9c1,3,2.82,4,5.54,5.43l.47.26A25.29,25.29,0,0,1,88,53.14a25,25,0,0,1,2.89,2.75ZM24.47,23.18a7.54,7.54,0,0,1-2.7-.49,8,8,0,0,1-3.25-2.59c-1-1.15-1.95-2.23-3.7-2.49l-.69-.1c-2.29-.3-5.74-.77-5.93-3.84-.13-2.08,1.27-3.87,2.51-5.44A20.88,20.88,0,0,0,12,6.44l.17-.28C13.57,3.87,15,1.5,17.2.08l.54.84c-2,1.29-3.38,3.56-4.7,5.75L12.87,7A19.42,19.42,0,0,1,11.5,8.84c-1.18,1.51-2.4,3.07-2.3,4.77.13,2.08,2.37,2.55,5.06,2.91l.71.1c2.11.31,3.23,1.59,4.31,2.83a7.07,7.07,0,0,0,2.84,2.3c3.83,1.43,7.25-.91,9.8-3.11a48.16,48.16,0,0,1,4.81-3.56c.2-.14.45-.29.73-.46,1.27-.79,3.2-2,3.08-3.18-.09-.89-1.06-1.17-2.43-1.47a8.29,8.29,0,0,1-1.36-.37c-.39-.17-.8-.38-1.21-.59l-.86-.43A6.77,6.77,0,0,1,32.16,6c-.22-.31-.44-.63-.66-.91L31,4.51a16.32,16.32,0,0,0-1.49-1.78A10.42,10.42,0,0,0,27,.94l.47-.88a11.32,11.32,0,0,1,2.75,2A19,19,0,0,1,31.83,3.9c.15.21.3.41.46.6s.46.63.69,1a6,6,0,0,0,2.13,2.21c.29.13.58.29.88.44s.79.4,1.16.56A6.68,6.68,0,0,0,38.32,9c1.29.28,3,.66,3.21,2.35S39.47,14.55,38,15.47l-.7.44a47.73,47.73,0,0,0-4.71,3.48C30.56,21.12,27.72,23.18,24.47,23.18Z"/>
<path d="M51.46,90.52l-1,0a12.46,12.46,0,0,0-.63-4.14c-2.42-8.06-6.08-20.23-2.14-30.15,1.63-4.09,6.12-8.17,11.25-7.71,5.53.51,7.18,5.57,8.51,9.64l.18.55c1.25,3.79,3.84,5.18,6.84,6.79,1,.55,2.06,1.11,3.13,1.8,2.65,1.71,4.4,4.45,6.1,7.1a43.68,43.68,0,0,0,2.92,4.2c1.44,1.74,2.85,3.61,4.28,5.54l-.8.6c-1.43-1.92-2.83-3.78-4.25-5.51a41.7,41.7,0,0,1-3-4.29c-1.72-2.68-3.33-5.21-5.8-6.8C76,67.44,75,66.88,74,66.35c-3-1.65-5.94-3.2-7.31-7.36l-.18-.56c-1.31-4-2.78-8.51-7.65-9-4.64-.43-8.74,3.33-10.23,7.08-3.81,9.6-.21,21.57,2.17,29.49A13.67,13.67,0,0,1,51.46,90.52Z"/>
<path d="M86.34,90.63c-.09-.33-.17-.66-.25-1s-.17-.67-.26-1a17.59,17.59,0,0,0-1.59-4.23,32,32,0,0,1-1.44-3.14,16,16,0,0,0-3.12-5.44,15,15,0,0,0-3.05-2.13,25.5,25.5,0,0,1-2.26-1.45c-.61-.45-1.18-1-1.73-1.43a20.25,20.25,0,0,0-2.6-2,36.23,36.23,0,0,0-5-2.43,3.27,3.27,0,0,1-2.15-2.93,5.78,5.78,0,0,0-.44-1.58,3.75,3.75,0,0,0-3.79-2.42,6.81,6.81,0,0,0-7,6.23,64.15,64.15,0,0,0-.32,12.51,15.06,15.06,0,0,0,1.54,4.88c.25.54.5,1.09.73,1.67a11.26,11.26,0,0,1,.49,5.83l-1-.14a10.34,10.34,0,0,0-.42-5.31c-.23-.57-.48-1.11-.72-1.64a15.37,15.37,0,0,1-1.62-5.2,64.52,64.52,0,0,1,.31-12.71,7.79,7.79,0,0,1,8-7.12h0a4.73,4.73,0,0,1,4.66,3,6.86,6.86,0,0,1,.53,1.84,2.3,2.3,0,0,0,1.55,2.19A38.48,38.48,0,0,1,70.56,68a21.35,21.35,0,0,1,2.73,2.12c.54.47,1.1,1,1.67,1.38a25.27,25.27,0,0,0,2.18,1.39,15.91,15.91,0,0,1,3.24,2.28,16.91,16.91,0,0,1,3.34,5.76,30.76,30.76,0,0,0,1.39,3,19,19,0,0,1,1.68,4.45c.1.34.18.68.27,1s.16.65.25,1Z"/>
<path d="M57.06,90.51l-1,0c0-1.08,0-2.19-.07-3.27s-.07-1.9-.07-2.85c0-.62,0-1.25,0-1.87,0-1.19,0-2.43,0-3.63,0-.44,0-.9,0-1.38a9.55,9.55,0,0,0-.18-2.61,8,8,0,0,0-.51-1.24C54.68,72.41,54,71,54.58,70a2.33,2.33,0,0,1,1.74-1.11,22.65,22.65,0,0,1,7.9.45A4.46,4.46,0,0,1,67.4,71a14,14,0,0,0,2.66,2.21,22.37,22.37,0,0,1,1.8,1.36,29.75,29.75,0,0,1,3.93,4.06L77,80.17c2.09,2.51,4.07,4.88,5.07,8.19a7.88,7.88,0,0,1,.33,2.14h-1a7,7,0,0,0-.29-1.86c-.94-3.11-2.85-5.41-4.88-7.84-.41-.5-.84-1-1.26-1.52a29,29,0,0,0-3.8-3.93,20,20,0,0,0-1.73-1.3,14.48,14.48,0,0,1-2.84-2.38A3.58,3.58,0,0,0,64,70.27a21.55,21.55,0,0,0-7.52-.44,1.4,1.4,0,0,0-1,.58c-.32.63.23,1.84.68,2.81a10.6,10.6,0,0,1,.57,1.4,10.6,10.6,0,0,1,.21,2.89c0,.45,0,.9,0,1.31.07,1.24,0,2.49,0,3.7,0,.62,0,1.24,0,1.86,0,.93,0,1.87.07,2.81S57.07,89.4,57.06,90.51Z"/>
<path d="M73,90.92c-.21-.13-.42-.27-.62-.42a5.8,5.8,0,0,1-2-3.37c-.19-.89-.31-1.79-.42-2.66s-.23-1.71-.4-2.53l-.12-.57a23.07,23.07,0,0,0-.54-2.25,3.63,3.63,0,0,0-2.33-2.5,1.9,1.9,0,0,0-1.87.74A4.7,4.7,0,0,0,63.81,80a18.62,18.62,0,0,0-.06,2.26,10.83,10.83,0,0,1-.59,4.54c-.43,1-.9,1.91-1.36,2.81-.19.37-.38.74-.56,1.11l-.9-.44.57-1.13c.45-.88.91-1.79,1.33-2.75a9.84,9.84,0,0,0,.51-4.13,21.07,21.07,0,0,1,.06-2.38A5.69,5.69,0,0,1,64,76.7a2.82,2.82,0,0,1,2.83-1,4.57,4.57,0,0,1,3.08,3.18c.24.79.4,1.58.56,2.34l.11.56c.19.86.3,1.75.42,2.61s.23,1.74.41,2.58A4.73,4.73,0,0,0,73,89.71c.17.13.35.25.53.37Z"/>
<path d="M65.17,90.57l-1-.14a5.5,5.5,0,0,1,.87-2.53,2.82,2.82,0,0,1,2.37-1,1.81,1.81,0,0,1,1.55,1,6.27,6.27,0,0,1,.42,2l0,.25c0,.11,0,.22,0,.32l-1,.07,0-.28,0-.26a5.69,5.69,0,0,0-.33-1.66.85.85,0,0,0-.73-.41,1.77,1.77,0,0,0-1.48.57A4.62,4.62,0,0,0,65.17,90.57Z"/>
<path d="M90.14,13.31,90.5,13l-.42.28L90,13.11c-1.5-1.54-1.89-3.23-1.29-5.65a6.82,6.82,0,0,1,1.44-2.71l.78.62a6,6,0,0,0-1.25,2.32c-.51,2.08-.21,3.45,1,4.73l.13.13-.3.41Z"/>
<path d="M90.15,50.68,89,49.5c-.92-.92-1.88-1.88-2.89-2.74-1.36-1.17-3.06-2.63-3.14-5.06s1.19-3.07,2.73-3.76a4.46,4.46,0,0,0,2.78-3.82,11.6,11.6,0,0,0,0-1.86c-.07-1.5-.15-3.21.76-4.43a5,5,0,0,1,1-1l.6.8a4,4,0,0,0-.81.78c-.7.93-.63,2.38-.56,3.78a13.4,13.4,0,0,1,0,2,5.42,5.42,0,0,1-3.38,4.65c-1.54.69-2.18,1.23-2.13,2.81.06,1.84,1.24,3,2.79,4.33,1,.89,2,1.86,3,2.79.39.4.78.79,1.18,1.17Z"/>
<path d="M1,53.18l-1-.1c0-.43.07-.88.1-1.36.06-1.29,1.33-1.89,2.45-2.42.94-.45,1.83-.87,1.92-1.55a5.31,5.31,0,0,0-.38-3.87,7,7,0,0,1-.9-2.94A2,2,0,0,0,3,40a10.65,10.65,0,0,0-1.56-1.42A15.36,15.36,0,0,1,.14,37.47l.73-.69A11.62,11.62,0,0,0,2,37.8,10,10,0,0,1,3.8,39.44a2.86,2.86,0,0,1,.39,1.4A5.74,5.74,0,0,0,5,43.39,6.14,6.14,0,0,1,5.44,48C5.29,49.11,4.06,49.69,3,50.2s-1.85.93-1.89,1.57S1,52.73,1,53.18Z"/>
<path d="M91,91H0V0H91ZM1,90H90V1H1Z"/></svg>