<?xml version="1.0" encoding="UTF-8"?><!DOCTYPE svg PUBLIC "-//W3C//DTD SVG 1.1//EN" "http://www.w3.org/Graphics/SVG/1.1/DTD/svg11.dtd"><svg xmlns="http://www.w3.org/2000/svg" xmlns:xlink="http://www.w3.org/1999/xlink"><symbol id="icon-envelop" viewBox="0 0 88 52">
    <path d="M4 0a4.6 4.6 0 0 0-.84.09L42 32.44a3.77 3.77 0 0 0 4.06 0L84.84.09A4.6 4.6 0 0 0 84 0zM.19 2.88A3.76 3.76 0 0 0 0 4v44a3.88 3.88 0 0 0 .19 1.13l28.75-22.32zm87.62 0L59.06 26.81l28.75 22.32A3.88 3.88 0 0 0 88 48V4a3.76 3.76 0 0 0-.19-1.12zM32.06 29.44L3.19 51.91A4.27 4.27 0 0 0 4 52h80a4.27 4.27 0 0 0 .81-.09L55.94 29.44l-7.35 6.09a7.21 7.21 0 0 1-9.18 0l-7.35-6.09z"/>
</symbol><symbol id="icon-lock" viewBox="0 0 14 17">
    <path d="M11 7V4a4 4 0 0 0-8 0v3a3 3 0 0 0-3 3v4a3 3 0 0 0 3 3h8a3 3 0 0 0 3-3v-4a3 3 0 0 0-3-3zM4 4.12A.5.5 0 0 0 4 4a3 3 0 0 1 6 0v3H4zM8.5 12A1.5 1.5 0 1 1 7 10.5 1.5 1.5 0 0 1 8.5 12z"/>
</symbol></svg>